<svg width="369" height="80" viewBox="0 0 369 80" fill="none" xmlns="http://www.w3.org/2000/svg">
<path d="M219.794 25.2576C223.504 19.5275 229.528 16.323 236.265 15.6863V22.8647C227.185 23.077 219.794 31.2352 219.794 41.2097V62.7451H212.735V15.6863H219.794V25.2576Z" fill="#47464A"/>
<path d="M209.598 39.2665V40.7843L169.598 40.7843C170.513 48.8138 177.836 55.6863 186.069 55.6863C192.269 55.6863 197.808 51.8697 200.553 46.2796L207.159 49.532C203.195 57.7648 195.115 62.7451 186.069 62.7451C173.161 62.7451 162.54 52.2763 162.54 39.2665C162.54 26.2567 173.161 15.6863 186.069 15.6863C199.079 15.6863 209.598 26.2567 209.598 39.2665ZM170.383 34.4895H201.755C199.722 27.883 193.285 22.7451 186.069 22.7451C178.853 22.7451 172.415 27.883 170.383 34.4895Z" fill="#47464A"/>
<path d="M102.007 17.2549H109.99L88.4569 80H80.3686L86.4611 62.7451H78.3728L62.9316 17.2549H71.0199L86.4611 62.7451L102.007 17.2549Z" fill="#47464A"/>
<path d="M53.5449 42.8891L59.7942 46.3639C54.3384 56.3912 43.8236 62.7451 32.3168 62.7451C15.0566 62.7451 0.970703 48.6473 0.970703 31.3726C0.970703 14.0978 15.0566 0 32.3168 0C43.8236 0 54.3384 6.25466 59.7942 16.3812L53.5449 19.856C49.2794 12.0129 41.1453 7.24746 32.3168 7.24746C19.0245 7.24746 8.21205 18.069 8.21205 31.3726C8.21205 44.6761 19.0245 55.4976 32.3168 55.4976C41.1453 55.4976 49.2794 50.6329 53.5449 42.8891Z" fill="#47464A"/>
<path d="M136.657 16.4706C149.667 16.4706 159.402 26.2827 159.402 39.2157C159.402 52.1487 149.667 62.7451 136.657 62.7451C130.457 62.7451 124.353 60.4111 120.186 56.4706V62.7451H113.127V0H120.186V22.7451C124.353 18.8046 130.457 16.4706 136.657 16.4706ZM136.657 55.6863C145.601 55.6863 153.127 48.1071 153.127 39.2157C153.127 30.3243 145.601 22.7451 136.657 22.7451C127.814 22.7451 119.402 30.3243 119.402 39.2157C119.402 48.1071 127.814 55.6863 136.657 55.6863Z" fill="#47464A"/>
<path d="M298.147 31.3725C298.147 39.3134 298.141 44.9299 297.681 49.0681C297.218 53.2357 296.366 55.0256 295.397 55.9951C294.427 56.9646 292.638 57.8163 288.47 58.2794C284.332 58.7392 278.715 58.7451 270.774 58.7451C255.657 58.7451 243.402 46.49 243.402 31.3725C243.402 16.2551 255.657 4 270.774 4C278.715 4 284.332 4.00593 288.47 4.46573C292.638 4.9288 294.427 5.78052 295.397 6.75C296.366 7.71947 297.218 9.50937 297.681 13.677C298.141 17.8152 298.147 23.4317 298.147 31.3725Z" stroke="#47464A" stroke-width="8"/>
<path fill-rule="evenodd" clip-rule="evenodd" d="M314.285 32.3451C314.285 24.0454 314.297 18.561 314.723 14.6099C315.049 11.589 315.531 10.5618 315.667 10.325C315.911 10.1861 316.87 9.75331 319.544 9.44691C323.322 9.01418 328.587 9 336.657 9C348.756 9 359.03 19.191 359.03 32.3451H368.03C368.03 14.4814 353.984 0 336.657 0C321.131 0 313.288 0 309.327 3.92096C305.285 7.92254 305.285 16.008 305.285 32.3451C305.285 48.6822 305.285 56.7676 309.327 60.7692C310.153 61.5862 311.146 62.233 312.343 62.745V32.3451H312.343V39.6227H336.657V32.3451L314.285 32.3451ZM315.704 10.2668C315.704 10.2669 315.702 10.2692 315.699 10.2735L315.702 10.2682C315.703 10.2672 315.703 10.2668 315.704 10.2668ZM315.62 10.3534C315.606 10.3648 315.598 10.37 315.598 10.3697C315.597 10.3695 315.604 10.3638 315.62 10.3534Z" fill="#47464A"/>
</svg>
