<svg width="138" height="30" viewBox="0 0 138 30" fill="none" xmlns="http://www.w3.org/2000/svg">
<path d="M82.0592 9.47156C83.4504 7.32279 85.7094 6.12108 88.2356 5.88232V8.57425C84.8307 8.65383 82.0592 11.7132 82.0592 15.4536V23.5294H79.4121V5.88233H82.0592V9.47156Z" fill="white"/>
<path d="M78.2349 14.7249V15.2941L63.2349 15.2941C63.578 18.3051 66.3241 20.8823 69.4114 20.8823C71.7364 20.8823 73.8137 19.4511 74.8427 17.3548L77.3202 18.5745C75.8337 21.6618 72.8036 23.5294 69.4114 23.5294C64.5709 23.5294 60.5879 19.6036 60.5879 14.7249C60.5879 9.84624 64.5709 5.88232 69.4114 5.88232C74.2901 5.88232 78.2349 9.84624 78.2349 14.7249ZM63.5291 12.9335L75.2938 12.9335C74.5315 10.4561 72.1176 8.52938 69.4114 8.52938C66.7053 8.52938 64.2914 10.4561 63.5291 12.9335Z" fill="white"/>
<path d="M37.8887 6.4707H40.8824L32.8073 30.0001H29.7742L32.0589 23.5295H29.0258L23.2354 6.4707H26.2684L32.0589 23.5295L37.8887 6.4707Z" fill="white"/>
<path d="M19.7153 16.0834L22.0588 17.3864C20.0129 21.1467 16.0698 23.5294 11.7548 23.5294C5.28221 23.5294 0 18.2427 0 11.7647C0 5.28667 5.28221 0 11.7548 0C16.0698 0 20.0129 2.3455 22.0588 6.14296L19.7153 7.44602C18.1158 4.50484 15.0655 2.7178 11.7548 2.7178C6.77016 2.7178 2.7155 6.77587 2.7155 11.7647C2.7155 16.7535 6.77016 20.8116 11.7548 20.8116C15.0655 20.8116 18.1158 18.9873 19.7153 16.0834Z" fill="white"/>
<path d="M50.8821 6.17647C55.7608 6.17647 59.4115 9.85602 59.4115 14.7059C59.4115 19.5557 55.7608 23.5294 50.8821 23.5294C48.5571 23.5294 46.2684 22.6542 44.7057 21.1765V23.5294H42.0586V0H44.7057V8.52941C46.2684 7.05172 48.5571 6.17647 50.8821 6.17647ZM50.8821 20.8823C54.2362 20.8823 57.0586 18.0402 57.0586 14.7059C57.0586 11.3716 54.2362 8.52941 50.8821 8.52941C47.5662 8.52941 44.4115 11.3716 44.4115 14.7059C44.4115 18.0402 47.5662 20.8823 50.8821 20.8823Z" fill="white"/>
<path d="M111.442 11.7647C111.442 14.7425 111.439 16.8487 111.267 18.4005C111.093 19.9634 110.774 20.6346 110.41 20.9982C110.047 21.3617 109.376 21.6811 107.813 21.8548C106.261 22.0272 104.155 22.0294 101.177 22.0294C95.5078 22.0294 90.9121 17.4337 90.9121 11.7647C90.9121 6.09566 95.5078 1.5 101.177 1.5C104.155 1.5 106.261 1.50223 107.813 1.67465C109.376 1.8483 110.047 2.16769 110.41 2.53125C110.774 2.8948 111.093 3.56601 111.267 5.12888C111.439 6.6807 111.442 8.78688 111.442 11.7647Z" stroke="white" stroke-width="3"/>
<path fill-rule="evenodd" clip-rule="evenodd" d="M137.647 12.1294H134.647C134.647 7.00038 130.637 3 125.882 3C122.865 3 120.865 3.00473 119.422 3.17003C118.725 3.24985 118.297 3.35429 118.033 3.45216C117.801 3.53848 117.744 3.60158 117.741 3.60476L117.741 3.60487L117.741 3.60499C117.727 3.61937 117.449 3.90601 117.284 5.43854C117.124 6.92406 117.117 8.96793 117.117 12H126V15H116.765V23.5296C116.316 23.3376 115.943 23.0949 115.633 22.7885C114.117 21.2879 114.117 18.2558 114.117 12.1294C114.117 6.00299 114.117 2.97095 115.633 1.47036C117.119 0 120.059 0 125.882 0C132.379 0 137.647 5.43052 137.647 12.1294Z" fill="white"/>
</svg>
