<svg width="138" height="30" viewBox="0 0 138 30" fill="none" xmlns="http://www.w3.org/2000/svg">
<path d="M82.0588 9.47159C83.4501 7.32282 85.709 6.12111 88.2353 5.88235V8.57428C84.8303 8.65386 82.0588 11.7132 82.0588 15.4536V23.5294H79.4117V5.88236H82.0588V9.47159Z" fill="black"/>
<path d="M78.2353 14.7249V15.2941L63.2353 15.2941C63.5783 18.3052 66.3245 20.8824 69.4118 20.8824C71.7368 20.8824 73.814 19.4512 74.8431 17.3548L77.3206 18.5745C75.8341 21.6618 72.804 23.5294 69.4118 23.5294C64.5712 23.5294 60.5883 19.6036 60.5883 14.7249C60.5883 9.84627 64.5712 5.88235 69.4118 5.88235C74.2905 5.88235 78.2353 9.84627 78.2353 14.7249ZM63.5294 12.9336L75.2941 12.9336C74.5318 10.4561 72.1179 8.52941 69.4118 8.52941C66.7056 8.52941 64.2917 10.4561 63.5294 12.9336Z" fill="black"/>
<path d="M37.8887 6.47058H40.8823L32.8072 30H29.7742L32.0588 23.5294H29.0257L23.2353 6.47058H26.2684L32.0588 23.5294L37.8887 6.47058Z" fill="black"/>
<path d="M19.7153 16.0834L22.0588 17.3864C20.0129 21.1467 16.0698 23.5294 11.7548 23.5294C5.28221 23.5294 0 18.2427 0 11.7647C0 5.28667 5.28221 0 11.7548 0C16.0698 0 20.0129 2.3455 22.0588 6.14296L19.7153 7.44602C18.1158 4.50484 15.0655 2.7178 11.7548 2.7178C6.77016 2.7178 2.7155 6.77587 2.7155 11.7647C2.7155 16.7535 6.77016 20.8116 11.7548 20.8116C15.0655 20.8116 18.1158 18.9873 19.7153 16.0834Z" fill="black"/>
<path d="M50.8824 6.17647C55.761 6.17647 59.4118 9.85602 59.4118 14.7059C59.4118 19.5557 55.761 23.5294 50.8824 23.5294C48.5574 23.5294 46.2686 22.6542 44.7059 21.1765V23.5294H42.0588V0H44.7059V8.52941C46.2686 7.05172 48.5574 6.17647 50.8824 6.17647ZM50.8824 20.8823C54.2365 20.8823 57.0588 18.0402 57.0588 14.7059C57.0588 11.3716 54.2365 8.52941 50.8824 8.52941C47.5664 8.52941 44.4118 11.3716 44.4118 14.7059C44.4118 18.0402 47.5664 20.8823 50.8824 20.8823Z" fill="black"/>
<path d="M111.441 11.7647C111.441 14.7425 111.439 16.8487 111.267 18.4005C111.093 19.9634 110.773 20.6346 110.41 20.9982C110.046 21.3617 109.375 21.6811 107.812 21.8548C106.26 22.0272 104.154 22.0294 101.176 22.0294C95.5074 22.0294 90.9117 17.4337 90.9117 11.7647C90.9117 6.09566 95.5074 1.5 101.176 1.5C104.154 1.5 106.26 1.50223 107.812 1.67465C109.375 1.8483 110.046 2.16769 110.41 2.53125C110.773 2.8948 111.093 3.56601 111.267 5.12888C111.439 6.6807 111.441 8.78688 111.441 11.7647Z" stroke="black" stroke-width="3"/>
<path fill-rule="evenodd" clip-rule="evenodd" d="M116.765 15V23.5294C116.316 23.3374 115.943 23.0949 115.634 22.7885C114.118 21.2879 114.118 18.2558 114.118 12.1294C114.118 6.00299 114.118 2.97095 115.634 1.47036C117.119 0 120.06 0 125.882 0C132.38 0 137.647 5.43052 137.647 12.1294H134.647C134.647 7.00038 130.637 3 125.882 3C122.866 3 120.865 3.00473 119.422 3.17003C118.725 3.24985 118.297 3.35429 118.034 3.45216C117.801 3.53848 117.745 3.60158 117.742 3.60476L117.742 3.60487L117.742 3.60499C117.728 3.61937 117.449 3.90601 117.284 5.43854C117.124 6.92406 117.118 8.96793 117.118 12H126V15H116.765Z" fill="black"/>
</svg>
